<?xml version="1.0" encoding="iso-8859-1"?>
<!-- Generator: Adobe Illustrator 19.0.0, SVG Export Plug-In . SVG Version: 6.00 Build 0)  -->
<svg version="1.1" id="Capa_1" xmlns="http://www.w3.org/2000/svg" xmlns:xlink="http://www.w3.org/1999/xlink" x="0px" y="0px"
	 viewBox="0 0 491.102 491.102" style="enable-background:new 0 0 491.102 491.102;" xml:space="preserve">
<g>
	<path style="fill:#3A2C51;" d="M127.478,231.445l-47.543,71.053c4.702,1.045,9.404,3.135,13.584,5.224
		c5.224,2.612,9.927,6.269,14.106,9.927l47.02-71.053c-4.702-1.045-9.404-3.135-13.584-5.224
		C136.359,238.237,131.657,235.102,127.478,231.445z"/>
	<path style="fill:#3A2C51;" d="M297.273,281.6l-74.71-62.171c-5.747,8.882-13.584,16.196-23.51,21.42l74.71,62.171
		C279.51,294.139,287.869,286.824,297.273,281.6z"/>
	<path style="fill:#3A2C51;" d="M385.045,175.543L332.8,274.808c10.971,1.045,20.898,4.702,29.78,10.971l50.678-96.131
		c-5.224-1.045-9.927-2.612-14.629-5.224C393.404,181.812,389.224,178.678,385.045,175.543z"/>
</g>
<g>
	<path style="fill:#4DCFE0;" d="M94.563,305.11c-4.18-2.09-8.359-3.657-14.106-5.224l0,0c-4.702-1.045-9.927-1.567-15.151-1.567
		C29.257,297.796,0,327.053,0,363.102s29.257,65.306,65.306,65.306s65.306-29.257,65.306-65.306c0-18.286-7.314-35.527-21.42-48.065
		C106.057,312.424,100.833,307.722,94.563,305.11z"/>
	<path style="fill:#4DCFE0;" d="M169.796,120.163c-36.049,0-65.306,29.257-65.306,65.306c0,18.286,7.314,35.527,21.42,48.065
		c3.657,3.135,8.359,7.314,14.629,9.927c4.18,2.612,8.882,4.18,14.629,5.747c5.224,1.045,9.927,1.567,15.151,1.567
		c10.449,0,20.898-2.612,30.302-7.837c10.449-5.747,18.808-13.584,24.555-22.465l0,0c6.792-10.971,10.449-22.988,10.449-35.527
		C235.102,149.42,205.845,120.163,169.796,120.163z"/>
	<path style="fill:#4DCFE0;" d="M363.624,283.69c-8.882-6.269-19.853-10.449-30.824-11.494c-2.09-0.522-4.18-0.522-6.269-0.522
		c-10.449,0-20.898,2.612-30.302,7.837s-17.763,12.539-24.555,22.465c-6.792,10.971-10.449,22.988-10.449,35.527
		c0,35.527,29.257,64.784,65.306,64.784s65.306-29.257,65.306-65.306C391.837,315.037,381.388,295.184,363.624,283.69z"/>
	<path style="fill:#4DCFE0;" d="M425.796,62.694c-36.049,0-65.306,29.257-65.306,65.306c0,18.808,8.359,36.571,22.988,49.633
		c4.18,3.657,8.359,6.269,14.106,9.404c4.702,2.09,9.927,4.18,15.151,5.224c4.18,1.045,8.882,1.567,13.061,1.567
		c36.049,0,65.306-29.257,65.306-65.306S461.845,62.694,425.796,62.694z"/>
</g>
<g>
</g>
<g>
</g>
<g>
</g>
<g>
</g>
<g>
</g>
<g>
</g>
<g>
</g>
<g>
</g>
<g>
</g>
<g>
</g>
<g>
</g>
<g>
</g>
<g>
</g>
<g>
</g>
<g>
</g>
</svg>
